<svg width="144" height="27" viewBox="0 0 144 27" fill="none" xmlns="http://www.w3.org/2000/svg">
<g clip-path="url(#clip0)">
<path d="M0.175293 12.9324C0.175293 6.68347 6.80683 2.70455 12.8772 2.70455C14.9942 2.70455 16.7286 3.39321 18.0039 4.08187L16.9837 9.03002H16.3715L15.3768 5.12761C14.5096 4.18389 13.5914 3.7758 12.4181 3.7758C9.43394 3.7758 6.09267 7.57618 6.06716 13.8251C6.04165 17.0899 7.80156 19.4874 10.0716 19.4874C11.0663 19.4874 11.8315 19.1559 12.4181 18.6968L15.5299 14.0292H16.295L14.9177 19.4874C13.5149 20.0486 11.3979 20.6097 9.2554 20.6097C3.92466 20.6097 0.175293 17.8041 0.175293 12.9324Z" fill="#0061AE"/>
<path d="M19.0496 20.4822C18.0804 20.4822 17.1367 19.768 17.5958 17.7785L20.784 4.54097L18.8711 2.90859L18.9986 2.39847L26.3188 0.944637L22.6204 16.8348H22.748C23.3856 16.2227 24.0743 15.4065 24.7119 14.5393L25.5281 14.9219C23.4621 18.9263 21.1921 20.4822 19.0496 20.4822Z" fill="#0061AE"/>
<path d="M40.5511 6.63248L37.924 16.8349H38.0515C38.6892 16.2227 39.3778 15.4065 40.0155 14.5393L40.8317 14.9219C38.9187 18.6203 36.7507 20.4822 34.3277 20.4822C33.1034 20.4822 32.4912 19.2324 33.0524 17.7531L34.1236 14.8964H33.9451C32.5167 17.396 30.2977 20.6097 27.8747 20.6097C26.6504 20.6097 25.2986 19.7935 25.2986 17.5745C25.2986 13.8507 29.1755 7.21912 34.7868 7.21912C35.2714 7.21912 35.7305 7.32114 36.2916 7.47418L36.7252 6.63248H40.5511ZM35.3479 9.10656L35.4754 8.67296C35.1693 8.39239 34.7868 8.18835 34.4042 8.18835C32.2107 8.18835 30.1957 13.4936 30.1957 16.2227C30.1957 17.1409 30.4252 17.294 30.6803 17.294C31.471 17.294 33.9451 13.8252 35.3479 9.10656Z" fill="#0061AE"/>
<path d="M44.3483 20.6352C42.3589 20.6352 40.5479 19.2069 40.5479 17.4725C40.5479 16.8093 40.905 15.9166 41.8232 14.9474H41.9252C42.9455 16.9624 45.3175 19.1304 46.6694 19.1304C47.0519 19.1304 47.358 18.8498 47.358 18.4417C47.358 18.0336 47.0264 17.6765 46.0572 16.7838L43.6597 14.6923C42.4609 13.6466 42.1038 12.9324 42.1038 12.0142C42.1038 9.51464 45.2665 6.86203 48.3017 6.86203C50.0106 6.86203 51.643 8.11182 51.643 9.56566C51.643 10.4839 51.1839 11.1725 50.2912 12.1928H50.1892C48.9139 10.2543 47.0264 8.67295 45.9042 8.67295C45.4961 8.67295 45.241 8.92801 45.241 9.25958C45.241 9.69318 45.5216 9.89723 46.7459 10.9685L48.5313 12.4988C50.1892 13.9272 50.6228 14.7689 50.6228 15.7381C50.6228 18.1356 47.6131 20.6352 44.3483 20.6352Z" fill="#0061AE"/>
<path d="M51.7451 9.59117L51.8471 9.03004C52.9438 8.0098 54.8058 6.93855 56.7952 6.93855C58.0195 6.93855 59.3203 7.62721 58.6317 10.3563L56.9993 16.8348H57.1268C57.7645 16.2227 58.4531 15.4065 59.0908 14.5393L59.907 14.9219C57.994 18.5948 55.826 20.4822 53.4285 20.4822C52.4592 20.4822 51.49 19.768 51.9746 17.7786L54.0151 9.97376C53.6325 9.69319 52.4592 9.43813 51.7451 9.59117ZM57.3054 0.970168C58.6317 0.970168 59.7029 2.04142 59.7029 3.34222C59.7029 4.66853 58.6317 5.68876 57.3054 5.68876C56.0046 5.68876 54.9843 4.66853 54.9843 3.34222C54.9843 2.04142 56.0046 0.970168 57.3054 0.970168Z" fill="#0061AE"/>
<path d="M59.9579 7.27014H62.585C63.8093 4.0819 67.4312 0.817139 71.8437 0.817139C73.9352 0.817139 75.44 1.83738 75.44 3.31672C75.44 4.5155 74.4963 5.3827 72.1753 5.61225C71.3846 3.31672 70.4919 2.01592 69.7777 2.01592C68.783 2.01592 67.9158 3.44425 67.2526 7.27014H73.6801L74.7004 6.93856H75.4655L72.9659 16.8349H73.0935C73.7311 16.2227 74.6238 15.0494 75.2615 14.1822L76.0777 14.5648C74.0882 18.3907 71.8947 20.4822 69.3951 20.4822C68.4259 20.4822 67.4057 19.7425 67.9668 17.6765L70.2623 8.69847H66.9721L65.6713 15.8656C64.1919 23.9765 58.7847 26.17 56.2851 26.17C54.8312 26.17 53.9385 25.3793 53.9385 24.3591C53.9385 23.2623 54.8823 22.2421 56.8717 21.783C57.4073 23.5939 58.1215 24.5631 58.5806 24.5631C59.0652 24.5631 59.2948 24.2826 59.6774 22.2421L62.1769 8.69847H59.7029L59.9579 7.27014Z" fill="#0061AE"/>
<path d="M81.0259 15.432C81.0259 17.0899 81.5615 17.651 82.3267 17.651C83.3214 17.651 84.9283 16.2227 86.3566 14.4373L87.1473 14.8964C85.0048 18.8753 83.1174 20.6352 80.0567 20.6352C77.8121 20.6352 76.0012 18.9518 76.0012 16.0952C76.0012 13.7741 77.1235 11.2235 79.8271 9.10655C81.6635 7.65271 83.8315 6.93854 85.5914 6.93854C87.1473 6.93854 88.2951 8.16283 88.2951 9.18306C88.2951 10.0503 87.7084 11.1215 86.025 12.0142C84.8773 9.99925 83.7295 8.54542 83.1429 8.54542C82.0206 8.54542 81.0259 12.4223 81.0259 15.432Z" fill="#0061AE"/>
<path d="M102.527 6.63248L99.9002 16.8349H100.028C100.665 16.2227 101.354 15.4065 101.992 14.5393L102.808 14.9219C100.895 18.6203 98.7269 20.4822 96.3039 20.4822C95.0796 20.4822 94.4675 19.2324 95.0286 17.7531L96.0998 14.8964H95.9213C94.493 17.396 92.274 20.6097 89.8509 20.6097C88.6266 20.6097 87.2748 19.7935 87.2748 17.5745C87.2748 13.8507 91.1517 7.21912 96.763 7.21912C97.2476 7.21912 97.7067 7.32114 98.2678 7.47418L98.7014 6.63248H102.527ZM97.3241 9.10656L97.4516 8.67296C97.1456 8.39239 96.763 8.18835 96.3804 8.18835C94.1869 8.18835 92.1719 13.4936 92.1719 16.2227C92.1719 17.1409 92.4015 17.294 92.6565 17.294C93.4472 17.294 95.9213 13.8252 97.3241 9.10656Z" fill="#0061AE"/>
<path d="M113.367 7.24462L114.005 4.541L112.092 2.90862L112.22 2.3985L119.463 0.970168L115.688 16.8348H115.79C116.428 16.2227 117.142 15.4065 117.754 14.5393L118.571 14.9219C116.607 18.7478 114.337 20.4312 112.22 20.4822C110.842 20.5077 110.332 19.1559 110.791 17.8041L111.76 15.0239H111.607C110.307 17.396 108.088 20.6097 105.486 20.6097C104.16 20.6097 102.884 19.6915 102.884 16.9879C102.884 12.0907 107.782 7.04058 111.811 7.04058C112.373 7.04058 112.857 7.11709 113.367 7.24462ZM113.061 8.46891C112.704 8.13733 112.373 7.9843 112.092 7.9843C109.924 7.9843 107.807 13.1875 107.807 16.4523C107.807 16.9879 107.935 17.396 108.266 17.396C109.261 17.396 111.913 13.3915 112.73 9.92274L113.061 8.46891Z" fill="#0061AE"/>
<path d="M133.007 12.5498C133.007 16.3247 130.405 20.6097 124.462 20.6097C120.968 20.6097 118.928 18.4927 118.928 15.0749C118.928 11.7337 121.274 7.01506 127.447 7.01506C130.89 7.01506 133.007 9.43812 133.007 12.5498ZM123.901 17.6765C123.901 19.2069 124.105 19.717 124.667 19.717C126.426 19.717 128.11 13.4681 128.11 10.1778C128.11 8.80047 127.88 7.93327 127.217 7.93327C125.534 7.93327 123.901 14.4118 123.901 17.6765Z" fill="#0061AE"/>
<path d="M136.705 20.6352C134.716 20.6352 132.905 19.2069 132.905 17.4725C132.905 16.8093 133.262 15.9166 134.18 14.9474H134.282C135.302 16.9624 137.675 19.1304 139.026 19.1304C139.409 19.1304 139.715 18.8498 139.715 18.4417C139.715 18.0336 139.383 17.6765 138.414 16.7838L136.017 14.6923C134.818 13.6466 134.461 12.9324 134.461 12.0142C134.461 9.51464 137.623 6.86203 140.659 6.86203C142.368 6.86203 144 8.11182 144 9.56566C144 10.4839 143.541 11.1725 142.648 12.1928H142.546C141.271 10.2543 139.383 8.67295 138.261 8.67295C137.853 8.67295 137.598 8.92801 137.598 9.25958C137.598 9.69318 137.879 9.89723 139.103 10.9685L140.888 12.4988C142.546 13.9272 142.98 14.7689 142.98 15.7381C142.98 18.1356 139.97 20.6352 136.705 20.6352Z" fill="#0061AE"/>
<path d="M0.730107 22.6504L0 25.421H46.2199C46.2199 25.421 50.5336 25.6505 52.6857 22.6504H2.82478H0.730107Z" fill="#E30613"/>
</g>
<defs>
<clipPath id="clip0">
<rect width="144" height="25.3529" fill="white" transform="translate(0 0.817139)"/>
</clipPath>
</defs>
</svg>
